<?xml version="1.0" encoding="UTF-8"?><svg id="Layer_2" xmlns="http://www.w3.org/2000/svg" viewBox="0 0 211.33 45.8"><defs><style>.cls-1{fill:#fff;stroke-width:0px;}</style></defs><g id="Layer_1-2"><path class="cls-1" d="m2.02,0v30.45c0,9.85,5.81,13.58,14.21,13.58s14.21-3.73,14.21-13.58V0h2.02v30.57c0,10.8-7.08,15.22-16.3,15.22S0,41.25,0,30.57V0h2.02Z"/><path class="cls-1" d="m41.51,18.38h.13c1.9-3.29,5.56-6.38,11.75-6.38s10.17,3.98,10.17,9.79v23.37h-1.9v-23.18c0-5.56-3.29-8.28-8.59-8.28-6.7,0-11.56,4.61-11.56,9.54v21.92h-1.9V12.51h1.9v5.88Z"/><path class="cls-1" d="m72.34,45.17h-1.9V12.51h1.9v32.66Z"/><path class="cls-1" d="m89.65,42.89h.06l11.5-30.39h1.96l-12.32,32.66h-2.27l-12.19-32.66h2.02l11.24,30.39Z"/><path class="cls-1" d="m106.39,28.74c.06,8.84,4.49,15.35,12.95,15.35,5.94,0,9.73-3.16,11.24-8.53h1.9c-1.26,5.69-5.69,10.23-13.14,10.23-9.67,0-14.85-7.26-14.85-17.18s5.5-16.68,14.59-16.68c3.41,0,6.25,1.07,8.4,2.91,3.6,3.03,5.24,7.83,5.37,13.9h-26.47Zm12.7-15.1c-7.14,0-12.19,5.31-12.63,13.52h24.45c-.5-8.72-5.12-13.52-11.81-13.52Z"/><path class="cls-1" d="m152.19,14.28c-1.2-.13-2.4-.13-3.6.13-5.18.76-8.65,5.75-8.65,10.3v20.47h-1.9V12.51h1.9v6.63h.13c1.71-3.6,4.61-5.75,7.9-6.25,1.45-.51,2.97-.57,4.23-.44v1.83Z"/><path class="cls-1" d="m156.11,35.12c.51,5.75,4.36,9.03,11.31,9.03,6.51,0,10.23-2.97,10.23-7.52s-2.46-6.32-10.49-7.77c-7.9-1.39-11.69-3.6-11.69-8.65s3.98-8.28,10.99-8.28c7.77,0,10.99,4.04,11.81,9.41h-1.9c-.69-4.67-3.66-7.71-9.92-7.71s-9.1,2.84-9.1,6.57,2.72,5.62,10.42,6.95c7.96,1.39,11.75,3.6,11.75,9.48s-4.74,9.16-12.13,9.16c-8.59,0-12.82-4.55-13.2-10.68h1.9Z"/><path class="cls-1" d="m184.86,28.74c.06,8.84,4.49,15.35,12.95,15.35,5.94,0,9.73-3.16,11.24-8.53h1.9c-1.26,5.69-5.69,10.23-13.14,10.23-9.67,0-14.85-7.26-14.85-17.18s5.5-16.68,14.59-16.68c3.41,0,6.25,1.07,8.4,2.91,3.6,3.03,5.24,7.83,5.37,13.9h-26.47Zm12.7-15.1c-7.14,0-12.19,5.31-12.63,13.52h24.45c-.51-8.72-5.12-13.52-11.81-13.52Z"/><path class="cls-1" d="m39.62.1h6.32v.99h-5.19v2.83h4.72v.95h-4.72v3.14h5.34v1.04h-6.47V.1Z"/><path class="cls-1" d="m49.08,5.65l-2.15-3.08h1.18l1.54,2.35h.02l1.6-2.35h1.11l-2.13,2.97,2.53,3.5h-1.19l-1.91-2.78h-.03l-1.88,2.78h-1.14l2.44-3.39Z"/><path class="cls-1" d="m53.55,2.58h1.01v.91h.02c.49-.66,1.14-1.06,2.08-1.06,1.64,0,2.78,1.25,2.78,3.4s-1.06,3.4-2.82,3.4c-.88,0-1.5-.26-2.04-.95h-.02v2.84h-1.01V2.58Zm4.85,3.27c0-1.45-.61-2.55-1.84-2.55-1.41,0-2.06,1.15-2.06,2.55s.56,2.54,2.05,2.54c1.24,0,1.85-1.08,1.85-2.54Z"/><path class="cls-1" d="m64.42,8.14h-.01c-.39.5-1.05,1.03-2.15,1.03-1.23,0-2.19-.58-2.19-1.8,0-1.53,1.2-1.84,2.82-2.09.91-.14,1.55-.23,1.55-.93s-.53-1.14-1.45-1.14c-1.05,0-1.58.45-1.61,1.43h-.98c.04-1.25.86-2.19,2.58-2.19,1.38,0,2.39.51,2.39,2.05v3.08c0,.53.13.81.69.69h.04v.74c-.13.05-.29.1-.55.1-.66,0-1.01-.3-1.11-.96Zm.03-1.49v-1.1c-.34.21-.93.38-1.48.48-1.01.19-1.83.36-1.83,1.31,0,.86.68,1.05,1.34,1.05,1.35,0,1.96-.99,1.96-1.74Z"/><path class="cls-1" d="m67.84,3.43h.02c.46-.61,1.11-1,2.05-1,1.35,0,2.18.74,2.18,2.08v4.54h-1.01v-4.45c0-.84-.55-1.31-1.46-1.31-1.03,0-1.78.73-1.78,1.79v3.98h-1.01V2.58h1.01v.85Z"/><path class="cls-1" d="m73.07,5.83c0-2.15,1.24-3.4,2.84-3.4.91,0,1.61.45,2.03,1.06h.03V.1h1.01v8.95h-1.01v-.79h-.03c-.49.63-1.09.98-2,.98-1.76,0-2.87-1.33-2.87-3.4Zm4.96.01c0-1.5-.73-2.55-2.06-2.55-1.23,0-1.85,1.1-1.85,2.55s.63,2.54,1.86,2.54c1.44,0,2.05-1.08,2.05-2.54Z"/><path class="cls-1" d="m79.99,5.82c0-1.88,1.23-3.4,3.07-3.4,1.94,0,2.98,1.5,2.98,3.64h-5c.08,1.31.79,2.31,2.09,2.31.94,0,1.56-.45,1.79-1.33h.99c-.3,1.39-1.31,2.18-2.78,2.18-1.98,0-3.13-1.53-3.13-3.4Zm1.06-.53h3.89c-.06-1.29-.73-2.08-1.89-2.08s-1.85.9-2,2.08Z"/><path class="cls-1" d="m86.66,5.83c0-2.15,1.24-3.4,2.84-3.4.91,0,1.61.45,2.03,1.06h.03V.1h1.01v8.95h-1.01v-.79h-.03c-.49.63-1.09.98-2,.98-1.76,0-2.87-1.33-2.87-3.4Zm4.96.01c0-1.5-.73-2.55-2.06-2.55-1.23,0-1.85,1.1-1.85,2.55s.63,2.54,1.86,2.54c1.44,0,2.05-1.08,2.05-2.54Z"/><path class="cls-1" d="m95.93,2.58h1.01v.93h.02c.4-.63,1.09-1.08,1.9-1.08s1.41.4,1.69,1.15h.02c.41-.74,1.19-1.15,1.98-1.15,1.15,0,1.96.74,1.96,2.08v4.54h-1.01v-4.49c0-.8-.54-1.28-1.19-1.28-.84,0-1.59.73-1.59,1.74v4.03h-1.01v-4.49c0-.8-.45-1.28-1.11-1.28-.79,0-1.66.73-1.66,1.74v4.03h-1.01V2.58Z"/><path class="cls-1" d="m109.82,8.14h-.01c-.39.5-1.05,1.03-2.15,1.03-1.23,0-2.19-.58-2.19-1.8,0-1.53,1.2-1.84,2.82-2.09.91-.14,1.55-.23,1.55-.93s-.53-1.14-1.45-1.14c-1.05,0-1.58.45-1.61,1.43h-.98c.04-1.25.86-2.19,2.58-2.19,1.38,0,2.39.51,2.39,2.05v3.08c0,.53.13.81.69.69h.04v.74c-.13.05-.29.1-.55.1-.66,0-1.01-.3-1.11-.96Zm.02-1.49v-1.1c-.34.21-.93.38-1.48.48-1.01.19-1.83.36-1.83,1.31,0,.86.68,1.05,1.34,1.05,1.35,0,1.96-.99,1.96-1.74Z"/><path class="cls-1" d="m112.24,2.58h1.01v.91h.02c.49-.66,1.14-1.06,2.08-1.06,1.64,0,2.78,1.25,2.78,3.4s-1.06,3.4-2.82,3.4c-.88,0-1.5-.26-2.04-.95h-.02v2.84h-1.01V2.58Zm4.85,3.27c0-1.45-.61-2.55-1.84-2.55-1.41,0-2.06,1.15-2.06,2.55s.56,2.54,2.05,2.54c1.24,0,1.85-1.08,1.85-2.54Z"/><path class="cls-1" d="m120.77,5.82c0-1.88,1.2-3.4,3.13-3.4s3.12,1.53,3.12,3.4-1.18,3.4-3.12,3.4-3.13-1.53-3.13-3.4Zm5.21,0c0-1.43-.7-2.56-2.08-2.56s-2.09,1.14-2.09,2.56.71,2.55,2.09,2.55,2.08-1.13,2.08-2.55Z"/><path class="cls-1" d="m127.49,2.58h.89v-1.04c0-1.11.64-1.51,1.71-1.51.21,0,.38.01.51.03v.86c-.17-.01-.23-.01-.33-.01-.65,0-.89.16-.89.69v.99h1.2v.83h-1.2v5.64h-1.01V3.4h-.89v-.83Z"/><path class="cls-1" d="m133.15,2.58h.94V.54h1.01v2.04h1.25v.83h-1.25v4.2c0,.45.24.6.65.6.2,0,.43-.05.54-.09h.04v.88c-.24.05-.51.09-.81.09-.83,0-1.43-.34-1.43-1.25V3.4h-.94v-.83Z"/><path class="cls-1" d="m138.42,3.43h.02c.46-.61,1.11-1,2.05-1,1.35,0,2.18.74,2.18,2.08v4.54h-1.01v-4.45c0-.84-.55-1.31-1.46-1.31-1.03,0-1.78.73-1.78,1.79v3.98h-1.01V.1h1.01v3.33Z"/><path class="cls-1" d="m143.65,5.82c0-1.88,1.23-3.4,3.07-3.4,1.94,0,2.98,1.5,2.98,3.64h-5c.08,1.31.79,2.31,2.09,2.31.94,0,1.56-.45,1.79-1.33h.99c-.3,1.39-1.31,2.18-2.78,2.18-1.98,0-3.13-1.53-3.13-3.4Zm1.06-.53h3.89c-.06-1.29-.73-2.08-1.89-2.08s-1.85.9-2,2.08Z"/><path class="cls-1" d="m152.3,5.82c0-1.88,1.2-3.4,3.13-3.4s3.12,1.53,3.12,3.4-1.18,3.4-3.12,3.4-3.13-1.53-3.13-3.4Zm5.21,0c0-1.43-.7-2.56-2.08-2.56s-2.09,1.14-2.09,2.56.71,2.55,2.09,2.55,2.08-1.13,2.08-2.55Z"/><path class="cls-1" d="m160.6,8.19h-.02v.85h-1.01V.1h1.01v3.4h.02c.49-.66,1.14-1.08,2.08-1.08,1.64,0,2.75,1.25,2.75,3.4s-1.04,3.4-2.79,3.4c-.88,0-1.51-.31-2.04-1.04Zm3.79-2.35c0-1.45-.59-2.55-1.81-2.55-1.41,0-2.06,1.15-2.06,2.55s.68,2.54,2.05,2.54c1.24,0,1.83-1.08,1.83-2.54Z"/><path class="cls-1" d="m166.03,6.94h1.04c.14,1.13.89,1.44,1.85,1.44,1.06,0,1.5-.46,1.5-1.06,0-.73-.5-.91-1.69-1.16-1.28-.26-2.42-.53-2.42-1.94,0-1.08.83-1.78,2.33-1.78,1.6,0,2.39.76,2.54,2.03h-1.04c-.1-.85-.56-1.23-1.53-1.23s-1.3.41-1.3.93c0,.7.63.84,1.74,1.06,1.3.26,2.39.55,2.39,2.04,0,1.3-1.06,1.96-2.55,1.96-1.78,0-2.77-.84-2.87-2.29Z"/><path class="cls-1" d="m172.18,5.82c0-1.88,1.23-3.4,3.07-3.4,1.94,0,2.98,1.5,2.98,3.64h-5c.08,1.31.79,2.31,2.09,2.31.94,0,1.56-.45,1.79-1.33h.99c-.3,1.39-1.31,2.18-2.78,2.18-1.98,0-3.13-1.53-3.13-3.4Zm1.06-.53h3.89c-.06-1.29-.73-2.08-1.89-2.08s-1.85.9-2,2.08Z"/><path class="cls-1" d="m180.22,3.65h.02c.39-.63,1.06-1.15,1.93-1.15.19,0,.29.02.41.08v.98h-.04c-.15-.05-.25-.06-.45-.06-1,0-1.88.75-1.88,1.96v3.59h-1.01V2.58h1.01v1.08Z"/><path class="cls-1" d="m182.84,2.58h1.09l1.34,4.1c.19.58.43,1.36.43,1.36h.02s.24-.8.43-1.36l1.36-4.1h1.05l-2.33,6.47h-1.13l-2.26-6.47Z"/><path class="cls-1" d="m193.05,8.14h-.01c-.39.5-1.05,1.03-2.15,1.03-1.23,0-2.19-.58-2.19-1.8,0-1.53,1.2-1.84,2.82-2.09.91-.14,1.55-.23,1.55-.93s-.53-1.14-1.45-1.14c-1.05,0-1.58.45-1.61,1.43h-.98c.04-1.25.86-2.19,2.58-2.19,1.38,0,2.39.51,2.39,2.05v3.08c0,.53.13.81.69.69h.04v.74c-.13.05-.29.1-.55.1-.66,0-1.01-.3-1.11-.96Zm.02-1.49v-1.1c-.34.21-.93.38-1.48.48-1.01.19-1.83.36-1.83,1.31,0,.86.68,1.05,1.34,1.05,1.35,0,1.96-.99,1.96-1.74Z"/><path class="cls-1" d="m196.5,8.19h-.02v.85h-1.01V.1h1.01v3.4h.02c.49-.66,1.14-1.08,2.08-1.08,1.64,0,2.75,1.25,2.75,3.4s-1.04,3.4-2.79,3.4c-.88,0-1.51-.31-2.04-1.04Zm3.79-2.35c0-1.45-.59-2.55-1.81-2.55-1.41,0-2.06,1.15-2.06,2.55s.68,2.54,2.05,2.54c1.24,0,1.83-1.08,1.83-2.54Z"/><path class="cls-1" d="m202.38.1h1.01v8.95h-1.01V.1Z"/><path class="cls-1" d="m204.44,5.82c0-1.88,1.23-3.4,3.07-3.4,1.94,0,2.98,1.5,2.98,3.64h-5c.08,1.31.79,2.31,2.09,2.31.94,0,1.56-.45,1.79-1.33h.99c-.3,1.39-1.31,2.18-2.78,2.18-1.98,0-3.13-1.53-3.13-3.4Zm1.06-.53h3.89c-.06-1.29-.73-2.08-1.89-2.08s-1.85.9-2,2.08Z"/></g></svg>